HIERARCHY
ROOT Hips
{
	OFFSET 0.000000 0.000000 0.000000
	CHANNELS 6 Xposition Yposition Zposition Zrotation Yrotation Xrotation 
	JOINT LowerBack
	{
		OFFSET 0.000000 0.000000 0.000000
		CHANNELS 3 Zrotation Yrotation Xrotation
		JOINT Spine
		{
			OFFSET 0.028270 2.035590 -0.193380
			CHANNELS 3 Zrotation Yrotation Xrotation
			JOINT Spine1
			{
				OFFSET 0.056720 2.048850 -0.042750
				CHANNELS 3 Zrotation Yrotation Xrotation
				JOINT Neck
				{
					OFFSET 0.000000 0.000000 0.000000
					CHANNELS 3 Zrotation Yrotation Xrotation
					JOINT Neck1
					{
						OFFSET -0.054170 1.746240 0.172020
						CHANNELS 3 Zrotation Yrotation Xrotation
						JOINT Head
						{
							OFFSET 0.104070 1.761360 -0.123970
							CHANNELS 3 Zrotation Yrotation Xrotation
							End Site
							{
								OFFSET 0.000000 0.000000 0.000000
							}
						}
					}
				}
				JOINT LeftShoulder
				{
					OFFSET 0.000000 0.000000 0.000000
					CHANNELS 3 Zrotation Yrotation Xrotation
					JOINT LeftArm
					{
						OFFSET 3.362410 1.200890 -0.311210
						CHANNELS 3 Zrotation Yrotation Xrotation
						JOINT LeftForeArm
						{
							OFFSET 4.983000 -0.000000 -0.000000
							CHANNELS 3 Zrotation Yrotation Xrotation
							JOINT LeftHand
							{
								OFFSET 3.483560 -0.000000 -0.000000
								CHANNELS 3 Zrotation Yrotation Xrotation
								JOINT LeftFingerBase
								{
									OFFSET 0.000000 0.000000 0.000000
									CHANNELS 3 Zrotation Yrotation Xrotation
									JOINT LeftHandIndex1
									{
										OFFSET 0.715260 -0.000000 -0.000000
										CHANNELS 3 Zrotation Yrotation Xrotation
										End Site
										{
											OFFSET 0.000000 0.000000 0.000000
										}
									}
								}
								JOINT LThumb
								{
									OFFSET 0.000000 0.000000 0.000000
									CHANNELS 3 Zrotation Yrotation Xrotation
									End Site
									{
										OFFSET 0.000000 0.000000 0.000000
									}
								}
							}
						}
					}
				}
				JOINT RightShoulder
				{
					OFFSET 0.000000 0.000000 0.000000
					CHANNELS 3 Zrotation Yrotation Xrotation
					JOINT RightArm
					{
						OFFSET -3.136600 1.374050 -0.404650
						CHANNELS 3 Zrotation Yrotation Xrotation
						JOINT RightForeArm
						{
							OFFSET -5.241900 -0.000000 -0.000000
							CHANNELS 3 Zrotation Yrotation Xrotation
							JOINT RightHand
							{
								OFFSET -3.444170 -0.000000 -0.000000
								CHANNELS 3 Zrotation Yrotation Xrotation
								JOINT RightFingerBase
								{
									OFFSET 0.000000 0.000000 0.000000
									CHANNELS 3 Zrotation Yrotation Xrotation
									JOINT RightHandIndex1
									{
										OFFSET -0.622530 -0.000000 -0.000000
										CHANNELS 3 Zrotation Yrotation Xrotation
										End Site
										{
											OFFSET 0.000000 0.000000 0.000000
										}
									}
								}
								JOINT RThumb
								{
									OFFSET 0.000000 0.000000 0.000000
									CHANNELS 3 Zrotation Yrotation Xrotation
									End Site
									{
										OFFSET 0.000000 0.000000 0.000000
									}
								}
							}
						}
					}
				}
			}
		}
	}
}
}
MOTION
Frames: 6
Frame Time: 0.008333
1.496437 15.811779 1.506738 -19.154872 -78.966299 58.984769 0.684431 -2.970824 5.277479 -0.522486 -2.925435 -2.177203 -5.766876 -2.842500 -1.947059 12.060045 -14.973558 -9.105664 -1.909747 -0.087283 -0.940423 0.000000 0.000000 0.000000 11.707013 1.199309 0.973495 -69.450662 2.076568 8.789730 -179.400833 -71.755094 179.945273 6.654678 1.061512 0.036169 -0.132598 0.486638 0.000000 0.000000 0.000000 0.000000 0.000000 0.000000 0.000000 6.571723 -9.635700 2.070032 67.156320 2.301400 24.089535 179.137678 75.415388 179.973567 -4.360902 2.781767 -0.126810 0.144460 -0.487462 0.000000 0.000000 0.000000 0.000000 0.000000 0.000000 0.000000 
1.509236 15.850018 1.530881 -20.232495 -78.586646 59.449792 1.052903 -3.057475 5.574190 -0.434948 -3.018037 -2.111860 -5.767004 -2.932532 -1.932247 12.010550 -15.033162 -8.969736 -1.894093 -0.088460 -0.894640 0.000000 0.000000 0.000000 11.661878 1.064572 0.919772 -69.310852 2.129228 8.443786 -179.420265 -71.760153 179.942201 7.018687 1.113775 0.041479 -0.140432 0.484583 0.000000 0.000000 0.000000 0.000000 0.000000 0.000000 0.000000 6.397067 -9.788498 2.036041 67.116401 2.175769 24.530818 179.136668 75.336818 179.975631 -4.092927 2.726483 -0.116851 0.137407 -0.482504 0.000000 0.000000 0.000000 0.000000 0.000000 0.000000 0.000000 
1.521705 15.891816 1.555001 -21.329603 -78.210662 59.945992 1.439153 -3.146813 5.857036 -0.343450 -3.113842 -2.049721 -5.767508 -3.025894 -1.914172 11.957942 -15.089824 -8.821079 -1.877222 -0.089780 -0.844835 0.000000 0.000000 0.000000 11.610819 0.928743 0.864497 -69.184117 2.221039 8.122646 -179.441100 -71.778962 179.939178 7.383775 1.162881 0.046889 -0.148088 0.482269 0.000000 0.000000 0.000000 0.000000 0.000000 0.000000 0.000000 6.205348 -9.943812 1.993560 67.084345 2.072196 24.952669 179.135826 75.233284 179.977436 -3.856675 2.685520 -0.108491 0.131020 -0.478035 -0.000000 0.000000 0.000000 0.000000 0.000000 0.000000 0.000000 
1.533199 15.936776 1.578399 -22.421951 -77.851453 60.459259 1.823749 -3.235619 6.116623 -0.252916 -3.209204 -1.992420 -5.770367 -3.118879 -1.891293 11.907914 -15.143449 -8.660635 -1.860260 -0.091319 -0.791217 0.000000 0.000000 0.000000 11.563187 0.796777 0.806854 -69.067333 2.343366 7.839924 -179.462344 -71.814170 179.936354 7.734109 1.205655 0.052099 -0.155296 0.479724 0.000000 0.000000 0.000000 0.000000 0.000000 0.000000 0.000000 6.008510 -10.100130 1.942056 67.062634 1.982154 25.350487 179.134915 75.101654 179.978973 -3.654397 2.663692 -0.101928 0.125345 -0.474238 -0.000000 0.000000 0.000000 0.000000 0.000000 0.000000 0.000000 
1.543738 15.984646 1.601010 -23.524659 -77.512993 61.005316 2.204560 -3.319495 6.351936 -0.164267 -3.299763 -1.940004 -5.776170 -3.207041 -1.862949 11.858752 -15.197085 -8.490028 -1.843599 -0.093076 -0.734362 0.000000 0.000000 0.000000 11.517789 0.672472 0.746656 -68.959117 2.481391 7.605758 -179.482945 -71.867705 179.933856 8.054949 1.240155 0.056908 -0.161795 0.477005 0.000000 0.000000 0.000000 0.000000 0.000000 0.000000 0.000000 5.807127 -10.258462 1.882069 67.052477 1.903639 25.718837 179.133901 74.941246 179.980249 -3.486110 2.663986 -0.097060 0.120369 -0.471225 -0.000000 0.000000 0.000000 0.000000 0.000000 0.000000 0.000000 
1.553158 16.035137 1.622786 -24.643153 -77.202453 61.593360 2.576035 -3.395058 6.561828 -0.079082 -3.382015 -1.892623 -5.785374 -3.286817 -1.829081 11.808967 -15.250867 -8.311222 -1.827679 -0.095043 -0.674992 0.000000 0.000000 0.000000 11.473019 0.560112 0.684531 -68.856863 2.624930 7.426754 -179.501836 -71.940432 179.931798 8.333010 1.264236 0.060816 -0.167364 0.474169 0.000000 0.000000 0.000000 0.000000 0.000000 0.000000 0.000000 5.602454 -10.416623 1.814189 67.055905 1.832755 26.053026 179.132880 74.751867 179.981271 -3.351158 2.687622 -0.093989 0.116045 -0.469075 0.000000 0.000000 0.000000 0.000000 0.000000 0.000000 0.000000 
